# xmcd
#
# Track frame offsets:
#	182
#	18522
#	37910
#	52412
#	66880
#	86355
#	104975
#	123912
#	140857
#	163715
#	184082
#	205520
#	220677
#	236705
#	261010
#	276260
#	301487
#	315197
#
# Disc length: 4451 seconds
#
# Revision: 0
# Processed by: cddbd v1.4PL0 Copyright (c) Steve Scherf et al.
# Submitted via: dBpowerAMP V4.0
#
DISCID=08116112
DTITLE=Michel Delpech - Tout Delpech à l'Olympia
DYEAR=1993
DGENRE=Oldies
TTITLE0=Quand j'étais chanteur
TTITLE1=Bruxelles
TTITLE2=30 manières de quitter une fille
TTITLE3=62 nos 15 ans
TTITLE4=Les divorcés
TTITLE5=Que Marianne était jolie
TTITLE6=Les aveux
TTITLE7=Le Loir et Cher
TTITLE8=Les voix du Brésil
TTITLE9=Multiraciale et pluriculturelle
TTITLE10=Chico Mendes
TTITLE11=Ce lundi-là
TTITLE12=Longue maladie
TTITLE13=Un été
TTITLE14=Le chasseur
TTITLE15=Wight is wight
TTITLE16=Chez Laurette
TTITLE17=pour un flirt
EXTD=
EXTT0=
EXTT1=
EXTT2=
EXTT3=
EXTT4=
EXTT5=
EXTT6=
EXTT7=
EXTT8=
EXTT9=
EXTT10=
EXTT11=
EXTT12=
EXTT13=
EXTT14=
EXTT15=
EXTT16=
EXTT17=
PLAYORDER=
